# xmcd
#
# Track frame offsets: 
#        150
#        14087
#        29472
#        41672
#        54585
#        66955
#        80395
#        92495
#        105542
#        116200
#        127622
#        143640
#        155552
#        171945
#        185209
#        197045
#        207582
#        222205
#        241055
#        253845
#        268680
#
# Disc length: 3751 seconds
#
# Revision: 2
# Processed by: cddbd v1.5.2PL0 Copyright (c) Steve Scherf et al.
# Submitted via: ExactAudioCopy v1.0b3
#
DISCID=360ea515
DTITLE=Various Artist - Radio 2 Country Hits CD2
DYEAR=2000
DGENRE=Country
TTITLE0=Dolly Parton - I Will Always Love You
TTITLE1=Billy Ray Cyrus - Achy Breaky Heart
TTITLE2=Hank Williams Sr - Your Cheating Heart
TTITLE3=Jim Reeves - Distant Drums
TTITLE4=Patsy Cline - Crazy
TTITLE5=Loretta Lynn - Coal Miner's Daughter
TTITLE6=Tammy Wynette - Stand By Your Man
TTITLE7=Dr Hook - A Little Bit More
TTITLE8=Dwight Yoakham - Crazy Little Thing Called Love
TTITLE9=Crystal Gayle - Don't It Make Your Brown Eyes Blue
TTITLE10=Willie Nelson - Always On My Mind
TTITLE11=Johnny Cash - Ring Of Fire
TTITLE12=The Charlie Daniels Band - The Devil Went Down To Georgia
TTITLE13=Lynn Anderson - Rose Garden
TTITLE14=Elvis Presley - The Wonder Of You
TTITLE15=Statler Brothers - Flowers On The Wall
TTITLE16=Jeannie C. Riley - Harper Valley P.T.A.
TTITLE17=Nanci Griffiths - From A Distance
TTITLE18=Waylon Jennings - My Heroes Have Always Been Cowboys
TTITLE19=Bellamy Brothers - Let Your Love Flow
TTITLE20=Bobbie Gentry - I'll Never Fall In Love Again
EXTD=
EXTT0=
EXTT1=
EXTT2=
EXTT3=
EXTT4=
EXTT5=
EXTT6=
EXTT7=
EXTT8=
EXTT9=
EXTT10=
EXTT11=
EXTT12=
EXTT13=
EXTT14=
EXTT15=
EXTT16=
EXTT17=
EXTT18=
EXTT19=
EXTT20=
PLAYORDER=
